<?xml version="1.0" encoding="UTF-8"?><svg xmlns="http://www.w3.org/2000/svg" xmlns:xlink="http://www.w3.org/1999/xlink" viewBox="0 0 48 48" version="1.1"><g id="surface1"><path d="M29.54 15.691A8.307 8.307 0 0 1 37.847 24a8.307 8.307 0 0 1-8.309 8.309" fill="none" stroke-width="2" stroke-linecap="butt" stroke-linejoin="miter" stroke="#1A237E" stroke-opacity="1" stroke-miterlimit="10"/><path d="M41 24c0 2.21-1.79 4-4 4s-4-1.79-4-4 1.79-4 4-4 4 1.79 4 4z" fill="#0D47A1"/><path d="M32 16c0 2.21-1.79 4-4 4s-4-1.79-4-4 1.79-4 4-4 4 1.79 4 4z" fill="#0D47A1"/><path d="M32 32c0 2.21-1.79 4-4 4s-4-1.79-4-4 1.79-4 4-4 4 1.79 4 4z" fill="#0D47A1"/><path d="M27 42L6 38V10l21-4z" fill="#1E88E5"/><path d="M20.535 29.71c-.305.552-.726.997-1.254 1.337a5.394 5.394 0 0 1-1.843.73c-.7.153-1.442.223-2.22.223-.8 0-1.558-.066-2.28-.2-.723-.136-1.348-.335-1.876-.605v-3.238c.59.492 1.231.86 1.922 1.105a6.196 6.196 0 0 0 2.094.372c.41 0 .774-.04 1.082-.114.305-.074.563-.175.77-.304.207-.133.36-.29.46-.465.102-.184.153-.375.153-.586 0-.277-.082-.535-.242-.758a2.702 2.702 0 0 0-.668-.617 6.729 6.729 0 0 0-1-.543c-.387-.18-.801-.356-1.25-.54-1.137-.472-1.988-1.046-2.547-1.73-.555-.683-.836-1.504-.836-2.468 0-.754.152-1.403.457-1.946a3.825 3.825 0 0 1 1.246-1.34 5.57 5.57 0 0 1 1.824-.773 9.266 9.266 0 0 1 2.196-.25c.757 0 1.43.047 2.015.137a8 8 0 0 1 1.621.422v3.02a4.872 4.872 0 0 0-.797-.442 6.34 6.34 0 0 0-.89-.317 6.977 6.977 0 0 0-1.77-.25c-.37 0-.71.035-1.011.106-.305.07-.563.168-.774.3a1.53 1.53 0 0 0-.488.458c-.113.18-.172.378-.172.601 0 .242.066.461.195.652.125.192.313.375.547.547.239.172.528.344.864.508.34.164.722.336 1.148.512.582.242 1.105.5 1.57.773.461.274.86.582 1.196.926.332.344.582.735.761 1.18.176.437.262.957.262 1.543 0 .804-.156 1.484-.465 2.035z" fill="#FFF"/></g><metadata><rdf:RDF xmlns:rdf="http://www.w3.org/1999/02/22-rdf-syntax-ns#" xmlns:rdfs="http://www.w3.org/2000/01/rdf-schema#" xmlns:dc="http://purl.org/dc/elements/1.1/"><rdf:Description about="https://iconscout.com/legal#licenses" dc:title="microsoft,sharepoint" dc:description="microsoft,sharepoint" dc:publisher="Iconscout" dc:date="2017-12-15" dc:format="image/svg+xml" dc:language="en"><dc:creator><rdf:Bag><rdf:li>Icons8</rdf:li></rdf:Bag></dc:creator></rdf:Description></rdf:RDF></metadata></svg>